<?xml version="1.0" encoding="utf-8"?>
<!-- Generator: Adobe Illustrator 19.1.0, SVG Export Plug-In . SVG Version: 6.00 Build 0)  -->
<svg version="1.1" xmlns="http://www.w3.org/2000/svg" xmlns:xlink="http://www.w3.org/1999/xlink" x="0px" y="0px"
	 viewBox="0 0 3316.7 398.7" style="enable-background:new 0 0 3316.7 398.7;" xml:space="preserve">
<style type="text/css">
	.st0{fill:none;stroke:#000000;stroke-width:0.5;stroke-miterlimit:10;}
	.st1{fill:none;stroke:#000000;stroke-miterlimit:10;}
	.st2{fill:none;stroke:#000000;stroke-width:3;stroke-miterlimit:10;}
	.st3{fill:none;stroke:#000000;stroke-width:1.5;stroke-miterlimit:10;}
	.st4{fill:none;stroke:#000000;stroke-width:1.5;stroke-miterlimit:10;stroke-dasharray:6.0085,6.0085;}
	.st5{fill:#FFFFFF;stroke:#000000;stroke-miterlimit:10;}
	.st6{fill:none;}
	.st7{font-family:'Poppins-Medium';}
	.st8{font-size:4.4422px;}
	.st9{fill:none;stroke:#000000;stroke-width:0.75;stroke-miterlimit:10;}
	.st10{fill:#FFFFFF;stroke:#000000;stroke-width:0.5;stroke-miterlimit:10;}
</style>
<g id="Layer_1">
	<polygon class="st0" points="417,358.8 417,341.5 1073.1,341.5 1067.6,358.8 	"/>
	<polygon class="st0" points="1070.2,358.8 1075.8,341.5 1120.7,341.5 1126.5,358.8 	"/>
	<polygon class="st0" points="1251.1,358.8 1256.7,341.5 1301.6,341.5 1307.4,358.8 	"/>
	<polygon class="st0" points="1310,358.8 1304.4,341.5 1539,341.5 1539,358.8 	"/>
	<polygon class="st0" points="1672.5,358.8 1672.5,341.5 2672.9,341.5 2676.2,358.8 	"/>
	<polyline class="st0" points="2696.3,358.8 2699.6,341.5 3316.7,341.5 	"/>
	<polyline class="st0" points="1129.2,358.8 1123.6,341.5 1184.8,341.5 	"/>
	<polyline class="st0" points="1248.3,358.8 1253.9,341.5 1192.7,341.5 	"/>
	<polyline class="st1" points="713.3,72.3 827.4,72.3 827.4,241.2 713.3,241.2 	"/>
	<rect x="720.3" y="79.3" class="st1" width="100.2" height="155"/>
	<line class="st0" x1="796.8" y1="93.7" x2="754.7" y2="135.7"/>
	<line class="st0" x1="808.9" y1="105.8" x2="766.8" y2="147.8"/>
	<line class="st0" x1="812.3" y1="90.7" x2="777.2" y2="125.7"/>
	<polyline class="st1" points="720.4,241.2 606.3,241.2 606.3,72.3 720.4,72.3 	"/>
	<line class="st2" x1="0" y1="358.8" x2="3316.7" y2="358.8"/>
	<g>
		<g>
			<line class="st3" x1="0" y1="119.6" x2="3" y2="119.6"/>
			<line class="st4" x1="9" y1="119.6" x2="3310.7" y2="119.6"/>
			<line class="st3" x1="3313.7" y1="119.6" x2="3316.7" y2="119.6"/>
		</g>
	</g>
	<rect x="290.5" y="79.7" class="st1" width="119.6" height="279"/>
	<rect x="283.5" y="72.8" class="st1" width="133.5" height="286"/>
	<rect x="613.3" y="79.3" class="st1" width="100.2" height="155"/>
	<rect x="298.5" y="213.6" class="st1" width="17.3" height="40"/>
	<rect x="303.9" y="232.3" class="st5" width="20.6" height="4.3"/>
	<circle class="st5" cx="303.9" cy="234.4" r="2.9"/>
	<rect x="1545.9" y="79.7" class="st1" width="119.6" height="279"/>
	<rect x="1539" y="72.8" class="st1" width="133.5" height="286"/>
	<rect x="1640.2" y="213.6" class="st1" width="17.3" height="40"/>
	<rect x="1709.5" y="189.3" class="st1" width="17.3" height="20"/>
	<rect x="1631.5" y="232.3" class="st5" width="20.6" height="4.3"/>
	<circle class="st5" cx="1652.1" cy="234.4" r="2.9"/>
	<line class="st0" x1="689.8" y1="93.7" x2="647.7" y2="135.7"/>
	<line class="st0" x1="701.9" y1="105.8" x2="659.8" y2="147.8"/>
	<line class="st0" x1="705.3" y1="90.7" x2="670.2" y2="125.7"/>
	<polyline class="st1" points="2266.6,72.3 2380.7,72.3 2380.7,241.2 2266.6,241.2 	"/>
	<rect x="2273.5" y="79.3" class="st1" width="100.2" height="155"/>
	<line class="st0" x1="2350" y1="93.7" x2="2308" y2="135.7"/>
	<line class="st0" x1="2362.1" y1="105.8" x2="2320.1" y2="147.8"/>
	<line class="st0" x1="2365.6" y1="90.7" x2="2330.5" y2="125.7"/>
	<polyline class="st1" points="2273.7,241.2 2159.6,241.2 2159.6,72.3 2273.7,72.3 	"/>
	<rect x="2166.5" y="79.3" class="st1" width="100.2" height="155"/>
	<line class="st0" x1="2243" y1="93.7" x2="2201" y2="135.7"/>
	<line class="st0" x1="2255.1" y1="105.8" x2="2213.1" y2="147.8"/>
	<line class="st0" x1="2258.6" y1="90.7" x2="2223.5" y2="125.7"/>
	<rect x="1152.6" y="258.2" class="st0" width="25.3" height="4.9"/>
	<rect x="1153.4" y="258.8" class="st6" width="23.1" height="5"/>
	<text transform="matrix(1 0 0 1 1153.3511 262.0893)" class="st7 st8">SAARINEN</text>
	<rect x="1153.6" y="263.2" class="st0" width="27" height="4.9"/>
	<path class="st9" d="M1171.2,273.7L1171.2,273.7c7.5,0,13.6,6.1,13.6,13.6v53c0,8.3-6.7,15.1-15.1,15.1c0,0-15.2,0-15.2,0v4.4h68.3
		v-4.4c0,0-15.2,0-15.2,0c-8.3,0-15.1-6.7-15.1-15.1v-53c0-7.5,6.1-13.6,13.6-13.6h0"/>
	<rect x="1134.4" y="268.1" class="st1" width="109.7" height="5.6"/>
	<rect x="1154.4" y="263.8" class="st6" width="23.1" height="5"/>
	<text transform="matrix(1 0 0 1 1154.3511 267.0893)" class="st7 st8">EAMES</text>
	<rect x="1714.1" y="196.3" class="st0" width="2.1" height="5.7"/>
	<rect x="1720.1" y="196.3" class="st0" width="2.1" height="5.7"/>
	<rect x="1714.1" y="196.3" class="st0" width="2.1" height="1.8"/>
	<rect x="1720.1" y="200.3" class="st0" width="2.1" height="1.8"/>
	<rect x="1851.1" y="310.1" class="st1" width="17.3" height="17.8"/>
	<line class="st0" x1="1855.6" y1="315.8" x2="1855.6" y2="314.1"/>
	<line class="st0" x1="1857.3" y1="314.1" x2="1857.3" y2="315.8"/>
	<path class="st0" d="M1858.2,317.7h-3.4l0,0c-0.6-1.4-0.6-3,0-4.4l0,0h3.4l0,0C1858.8,314.7,1858.8,316.3,1858.2,317.7
		L1858.2,317.7z"/>
	<circle cx="1856.5" cy="316.5" r="0.3"/>
	<line class="st0" x1="1862.2" y1="315.8" x2="1862.2" y2="314.1"/>
	<line class="st0" x1="1863.8" y1="314.1" x2="1863.8" y2="315.8"/>
	<path class="st0" d="M1864.7,317.7h-3.4l0,0c-0.6-1.4-0.6-3,0-4.4l0,0h3.4l0,0C1865.3,314.7,1865.3,316.3,1864.7,317.7
		L1864.7,317.7z"/>
	<circle cx="1863" cy="316.5" r="0.3"/>
	<line class="st0" x1="1855.6" y1="322.4" x2="1855.6" y2="320.7"/>
	<line class="st0" x1="1857.3" y1="320.7" x2="1857.3" y2="322.4"/>
	<path class="st0" d="M1858.2,324.3h-3.4l0,0c-0.6-1.4-0.6-3,0-4.4l0,0h3.4l0,0C1858.8,321.3,1858.8,322.9,1858.2,324.3
		L1858.2,324.3z"/>
	<circle cx="1856.5" cy="323.1" r="0.3"/>
	<line class="st0" x1="1862.2" y1="322.4" x2="1862.2" y2="320.7"/>
	<line class="st0" x1="1863.8" y1="320.7" x2="1863.8" y2="322.4"/>
	<path class="st0" d="M1864.7,324.3h-3.4l0,0c-0.6-1.4-0.6-3,0-4.4l0,0h3.4l0,0C1865.3,321.3,1865.3,322.9,1864.7,324.3
		L1864.7,324.3z"/>
	<circle cx="1863" cy="323.1" r="0.3"/>
	<rect x="2263.1" y="310.1" class="st1" width="17.3" height="17.8"/>
	<line class="st0" x1="2267.6" y1="315.8" x2="2267.6" y2="314.1"/>
	<line class="st0" x1="2269.3" y1="314.1" x2="2269.3" y2="315.8"/>
	<path class="st0" d="M2270.1,317.7h-3.4l0,0c-0.6-1.4-0.6-3,0-4.4l0,0h3.4l0,0C2270.7,314.7,2270.7,316.3,2270.1,317.7
		L2270.1,317.7z"/>
	<circle cx="2268.4" cy="316.5" r="0.3"/>
	<line class="st0" x1="2274.1" y1="315.8" x2="2274.1" y2="314.1"/>
	<line class="st0" x1="2275.8" y1="314.1" x2="2275.8" y2="315.8"/>
	<path class="st0" d="M2276.6,317.7h-3.4l0,0c-0.6-1.4-0.6-3,0-4.4l0,0h3.4l0,0C2277.3,314.7,2277.3,316.3,2276.6,317.7
		L2276.6,317.7z"/>
	<circle cx="2275" cy="316.5" r="0.3"/>
	<line class="st0" x1="2267.6" y1="322.4" x2="2267.6" y2="320.7"/>
	<line class="st0" x1="2269.3" y1="320.7" x2="2269.3" y2="322.4"/>
	<path class="st0" d="M2270.1,324.3h-3.4l0,0c-0.6-1.4-0.6-3,0-4.4l0,0h3.4l0,0C2270.7,321.3,2270.7,322.9,2270.1,324.3
		L2270.1,324.3z"/>
	<circle cx="2268.4" cy="323.1" r="0.3"/>
	<line class="st0" x1="2274.1" y1="322.4" x2="2274.1" y2="320.7"/>
	<line class="st0" x1="2275.8" y1="320.7" x2="2275.8" y2="322.4"/>
	<path class="st0" d="M2276.6,324.3h-3.4l0,0c-0.6-1.4-0.6-3,0-4.4l0,0h3.4l0,0C2277.3,321.3,2277.3,322.9,2276.6,324.3
		L2276.6,324.3z"/>
	<circle cx="2275" cy="323.1" r="0.3"/>
	<rect x="913.1" y="310.1" class="st1" width="17.3" height="17.8"/>
	<line class="st0" x1="917.7" y1="315.8" x2="917.7" y2="314.1"/>
	<line class="st0" x1="919.3" y1="314.1" x2="919.3" y2="315.8"/>
	<path class="st0" d="M920.2,317.7h-3.4l0,0c-0.6-1.4-0.6-3,0-4.4l0,0h3.4l0,0C920.8,314.7,920.8,316.3,920.2,317.7L920.2,317.7z"/>
	<circle cx="918.5" cy="316.5" r="0.3"/>
	<line class="st0" x1="924.2" y1="315.8" x2="924.2" y2="314.1"/>
	<line class="st0" x1="925.9" y1="314.1" x2="925.9" y2="315.8"/>
	<path class="st0" d="M926.7,317.7h-3.4l0,0c-0.6-1.4-0.6-3,0-4.4l0,0h3.4l0,0C927.3,314.7,927.3,316.3,926.7,317.7L926.7,317.7z"/>
	<circle cx="925" cy="316.5" r="0.3"/>
	<line class="st0" x1="917.7" y1="322.4" x2="917.7" y2="320.7"/>
	<line class="st0" x1="919.3" y1="320.7" x2="919.3" y2="322.4"/>
	<path class="st0" d="M920.2,324.3h-3.4l0,0c-0.6-1.4-0.6-3,0-4.4l0,0h3.4l0,0C920.8,321.3,920.8,322.9,920.2,324.3L920.2,324.3z"/>
	<circle cx="918.5" cy="323.1" r="0.3"/>
	<line class="st0" x1="924.2" y1="322.4" x2="924.2" y2="320.7"/>
	<line class="st0" x1="925.9" y1="320.7" x2="925.9" y2="322.4"/>
	<path class="st0" d="M926.7,324.3h-3.4l0,0c-0.6-1.4-0.6-3,0-4.4l0,0h3.4l0,0C927.3,321.3,927.3,322.9,926.7,324.3L926.7,324.3z"/>
	<circle cx="925" cy="323.1" r="0.3"/>
	<polyline class="st1" points="2676.2,358.8 2670.1,326.6 2686.2,326.6 	"/>
	<polyline class="st1" points="2696.3,358.8 2702.4,326.6 2686.2,326.6 	"/>
	<polygon class="st1" points="2685.6,282.5 2683.1,276.5 2684.3,275.7 2686.2,277.3 2689.4,250.2 2688.7,230.4 2690.3,229.1 
		2692.1,248.5 2693.4,247.3 2694.6,248 2691.7,254.5 2688.9,277.2 2689.5,316.6 2687.7,316.6 2686.8,316.2 	"/>
	<polygon class="st1" points="2672.7,322.9 2676.9,321.5 2677.8,319.1 2680.9,318 2681.6,316.9 2683.4,316.9 2685.2,315.3 
		2686.8,316.2 2687.7,316.6 2690.1,316.6 2691.9,318.8 2694.3,319.1 2695,320.6 2699.4,321.2 2701,322.9 	"/>
	<rect x="2668.2" y="322.9" class="st1" width="36" height="3.8"/>
	<polygon class="st5" points="2673.6,171 2668.9,166.6 2664.2,169.3 2661,167.6 2663.5,164.6 2666.4,163.3 2666.4,160.2 
		2668.7,161.2 2666.5,156.1 2668.8,156.7 2671.4,159.7 2673.6,160.4 2676.9,165.1 2679,160.8 2681,159.5 2681.9,163.5 2680.5,167.4 
		2684.1,169.7 2684.9,171 2688.9,171 2690.9,172.1 2683.9,175.6 2684.3,178.8 2691.8,181.4 2693.3,179.9 2694.6,179.9 2695.7,182.6 
		2697.6,176.9 2694.6,178.7 2691.7,177.8 2696.5,173.4 2698.7,173.4 2695.7,167.1 2693.6,165.8 2686.1,168.2 2682.2,166.6 
		2685.5,165.3 2689.9,164.3 2692.2,164.3 2687.6,159 2681.8,157.7 2684.5,155.4 2688.2,156.7 2693.3,156.6 2690.4,151.3 
		2691.5,148.9 2688.9,141.7 2688.9,139.2 2694.6,147.6 2693.8,136.9 2696.6,139.5 2700.2,154.1 2700.2,148.3 2701.9,151.7 
		2701.9,155.7 2703.4,154.1 2704.3,159.5 2703,165.2 2700.7,168.8 2700.7,170 2712.3,170.1 2710.5,164.6 2711.5,161 2713.7,167.1 
		2714.5,162.8 2715.3,163.1 2716.3,168.5 2718.3,158.8 2718.3,155.2 2720,157.4 2720,162.5 2718.5,168 2716.8,173.4 2720,170.3 
		2718.5,176.4 2716.9,179.2 2713.3,184 2714.6,184 2717.6,180.1 2720,179.4 2717.3,185.7 2714.6,189.3 2715.6,190.4 2717.7,189.5 
		2721.3,189.3 2724.4,181.8 2727.5,175.6 2728.3,178.5 2728.3,181.7 2730.6,178.8 2730.6,183.5 2729,193.6 2734.6,187.6 
		2738.3,186.3 2736.4,191.1 2733,196.5 2729.8,198.7 2732.2,198.7 2732.1,200.1 2728.8,202.1 2733.7,204.1 2730.1,205 2726.2,203.7 
		2722.2,205.9 2719,206.6 2715.4,210.9 2712.2,213.7 2714.7,213.7 2716.9,212.3 2720.3,212 2725.7,207.3 2728.9,206.1 2727,208.9 
		2727.1,210.1 2729.7,209.1 2732.9,207.4 2736.1,207.3 2735.5,209.5 2732.1,211.9 2732.6,214.9 2734.3,219.9 2732.2,218.7 
		2730.8,215.9 2727.6,213.8 2725.4,215.5 2721.8,218.1 2725.7,219.2 2729.8,219.2 2730.8,220.7 2726.5,221.4 2720.8,220.8 
		2717.1,218.8 2711,219 2713.8,220.7 2713.5,222.7 2715.8,225.7 2714.6,226.6 2712.3,225.4 2716.9,233.1 2718.9,236 2714.6,234.2 
		2712.2,230.2 2709.7,224.6 2708.1,225 2707.8,230.9 2713.6,236 2718.3,239.9 2716.3,239.9 2712.2,237.9 2711.4,239.2 2711.3,241.9 
		2709.7,240.7 2709,237.5 2706,235.4 2706,239.6 2704.5,243.4 2702.8,243.4 2702.3,239.2 2704.2,233.4 2702.3,230.8 2700.2,236.3 
		2694.6,241.5 2693.6,239.2 2694.6,236.5 2692.9,235.6 2690.4,229.8 2688.7,231.6 2686.8,239.4 2684.3,239.8 2684.1,236.6 
		2685.3,233 2683.1,233.6 2681.9,237.4 2680.8,239.3 2679.5,233.9 2677.3,231.1 2677.3,229.1 2675.8,227.3 2675,230.7 2675.5,233.1 
		2675.6,238.1 2674.7,241.2 2671.5,235.6 2671.3,229.1 2668.7,230.7 2663.9,235.3 2661,238.4 2659.4,235.6 2660.3,231.3 
		2656.7,234.9 2651.3,237.1 2655,232.2 2651.3,232.4 2661.9,226.8 2655.9,224.8 2653.2,225 2649.4,227.7 2644.4,232.1 2638.8,232.7 
		2644.6,228.5 2639.7,227 2644.6,226.1 2647.3,224.4 2652.3,223.7 2651.1,221.4 2654.3,220.9 2654.8,218.6 2652.6,219 2658.4,211.9 
		2655.7,211.9 2658,209.6 2652.7,209.7 2645.3,207.5 2646.6,206 2649.6,205.6 2655.3,206.5 2657.4,205.8 2659.5,205.8 2655.8,204.6 
		2651.5,203.9 2653.4,202.8 2657.4,203 2660.5,204.1 2658.9,201.7 2655.1,201.2 2653.4,199.2 2652.7,197.9 2655.4,198 2655.1,196.3 
		2656.3,194 2653,194 2647,194.6 2643.7,193.7 2639.7,191.4 2646.7,191.3 2654.6,191.8 2650.2,187.3 2649.5,184.6 2653.3,185.3 
		2649,182.4 2646.5,180.5 2650.4,180.7 2654.2,182.7 2651.8,178.7 2653.2,178.7 2657.3,181.3 2658.5,180 2659.4,181.4 2662,183.1 
		2663.6,187.2 2667.7,191.1 2669,196.3 2673.2,202.7 2677.5,197.6 2681.5,191.2 2680.7,189.8 2676.4,188.5 2675.3,189 2672.8,186.9 
		2669.2,185.7 2667.9,184.4 2671.3,184.1 2674.1,183 2676.2,183.7 2677.7,185.3 2680.1,186.2 2679.4,183.3 2673.6,181.4 
		2671.1,180.2 2665.1,181.7 2663.6,181.6 2666.8,178.3 2671.9,176.3 2677,175.1 2674.2,171.7 2671.6,173.1 2668.8,175.5 
		2666.4,175.4 2666.8,173.4 2669.3,171.5 2671.7,170.8 	"/>
	<polygon class="st1" points="3069.5,37.7 3002.1,39 3011.9,34.6 3069.5,36 	"/>
	<polygon class="st1" points="3094,37.7 3161.4,39 3151.6,34.6 3094,36 	"/>
	<path class="st1" d="M3090.8,42.3h-18.1c-1.8,0-3.2-1.4-3.2-3.2v-2.9c0-1.8,1.4-3.2,3.2-3.2h18.1c1.8,0,3.2,1.4,3.2,3.2v2.9
		C3094,40.9,3092.6,42.3,3090.8,42.3z"/>
	<path class="st1" d="M3083.1,42.3c0,1-0.8,1.9-1.9,1.9c-1,0-1.9-0.8-1.9-1.9"/>
	<line class="st0" x1="3069.5" y1="36" x2="3094" y2="36"/>
	<line class="st0" x1="3069.5" y1="39" x2="3094" y2="39"/>
	<polygon class="st1" points="3088.7,31.5 3076.5,31.5 3074.6,31.5 3074.6,33 3088.7,33 	"/>
	<polyline class="st1" points="3081.6,22 3079.4,22 3076.6,28.2 3076.6,31.5 	"/>
	<polyline class="st1" points="3081.8,22 3084,22 3086.8,28.2 3086.8,31.5 	"/>
	<polygon class="st1" points="3086.8,0.5 3076.6,0.5 3078.6,11.1 3084.8,11.1 	"/>
	<rect x="3080.5" y="11.1" class="st1" width="2.7" height="10.9"/>
	<rect x="0.5" y="341.5" class="st0" width="283" height="17.3"/>
</g>
<g id="Layer_2">
	<polyline class="st1" points="1310,358.8 1292,303.1 1289.2,303.1 1307.2,358.8 	"/>
	<polygon class="st1" points="1251,358.8 1248.2,358.8 1266.2,303.1 1269,303.1 	"/>
	<polygon class="st0" points="1298.1,330.5 1266.5,310.6 1267,309.2 1297.4,328.4 	"/>
	<polygon class="st10" points="1291.1,308.8 1261,327.9 1260.3,329.9 1291.6,310.6 	"/>
	<path class="st1" d="M1251.7,303.1h41.4c6.7,0,12.3-4.9,13.3-11.5l3.6-24.5"/>
	<path class="st1" d="M1247.3,305.5l2.9-4.4c1-1.4,1.7-3,2.3-4.7l5.8-17.4c0.4-1.2,1.1-2.2,2.1-2.9l1.2-0.9c1.1-0.8,2.4-1.3,3.8-1.4
		l33.2-3c1.4-0.1,2.8-0.5,4.2-1.1l0.4-0.2c1.4-0.6,2.7-1.5,3.8-2.5l0.7-0.7c1.7-1.7,3.2-3.6,4.4-5.6l4.8-8.3
		c0.3-0.4,0.8-0.5,1.2-0.2l0,0c0.4,0.4,0.5,1,0.2,1.5l-5.2,9c-1.2,2.1-2.7,4-4.4,5.6l-0.7,0.7c-1.1,1.1-2.4,1.9-3.8,2.5l-0.4,0.2
		c-1.3,0.6-2.7,0.9-4.2,1.1l-33.2,3c-1.4,0.1-2.7,0.6-3.8,1.4l-1.2,0.9c-1,0.7-1.7,1.7-2.1,2.9l-5.8,17.4c-0.5,1.7-1.3,3.2-2.3,4.7
		l-2.7,4.1c-0.3,0.4-0.8,0.4-1.1,0l-0.1-0.1C1247,306.7,1247,306,1247.3,305.5z"/>
	<polyline class="st1" points="1067.5,358.8 1085.5,303.1 1088.2,303.1 1070.2,358.8 	"/>
	<polygon class="st1" points="1126.5,358.8 1129.2,358.8 1111.2,303.1 1108.5,303.1 	"/>
	<polygon class="st0" points="1079.4,330.5 1110.9,310.6 1110.4,309.2 1080,328.4 	"/>
	<polygon class="st10" points="1086.4,308.8 1116.5,327.9 1117.2,329.9 1085.8,310.6 	"/>
	<path class="st1" d="M1125.7,303.1h-41.4c-6.7,0-12.3-4.9-13.3-11.5l-3.6-24.5"/>
	<path class="st1" d="M1130.1,305.5l-2.9-4.4c-1-1.4-1.7-3-2.3-4.7l-5.8-17.4c-0.4-1.2-1.1-2.2-2.1-2.9l-1.2-0.9
		c-1.1-0.8-2.4-1.3-3.8-1.4l-33.2-3c-1.4-0.1-2.8-0.5-4.2-1.1l-0.4-0.2c-1.4-0.6-2.7-1.5-3.8-2.5l-0.7-0.7c-1.7-1.7-3.2-3.6-4.4-5.6
		l-4.8-8.3c-0.3-0.4-0.8-0.5-1.2-0.2l0,0c-0.4,0.4-0.5,1-0.2,1.5l5.2,9c1.2,2.1,2.7,4,4.4,5.6l0.7,0.7c1.1,1.1,2.4,1.9,3.8,2.5
		l0.4,0.2c1.3,0.6,2.7,0.9,4.2,1.1l33.2,3c1.4,0.1,2.7,0.6,3.8,1.4l1.2,0.9c1,0.7,1.7,1.7,2.1,2.9l5.8,17.4c0.5,1.7,1.3,3.2,2.3,4.7
		l2.7,4.1c0.3,0.4,0.8,0.4,1.1,0l0.1-0.1C1130.4,306.7,1130.5,306,1130.1,305.5z"/>
</g>
</svg>
