<?xml version="1.0" encoding="utf-8"?>
<!-- Generator: Adobe Illustrator 19.1.0, SVG Export Plug-In . SVG Version: 6.00 Build 0)  -->
<svg version="1.1" id="Layer_1" xmlns="http://www.w3.org/2000/svg" xmlns:xlink="http://www.w3.org/1999/xlink" x="0px" y="0px"
	 viewBox="0 0 207.3 136.1" style="enable-background:new 0 0 207.3 136.1;" xml:space="preserve">
<g>
	<path d="M32.7,6.2v8.1h-8.6v24.3H13.9V14.2H5.4V6.2H32.7z"/>
	<path d="M67.2,6.2L55.6,28.7v9.8H45.4v-9.8L33.8,6.2h11.6l5.2,11.5l5.2-11.5H67.2z"/>
	<path d="M79.4,28.2v10.3H69.3V6.2h14.2c4,0,7,1,9.1,3c2.1,2,3.2,4.7,3.2,8.1c0,2-0.5,3.9-1.4,5.6c-0.9,1.7-2.3,3-4.2,4
		c-1.8,1-4.1,1.5-6.7,1.5H79.4z M85.5,17.3c0-2-1.1-3-3.2-3h-2.9v5.9h2.9C84.4,20.2,85.5,19.3,85.5,17.3z"/>
	<path d="M108.8,6.2v32.4H98.6V6.2H108.8z"/>
	<path d="M136.2,7.4c2.2,1.1,4,2.5,5.4,4.5c1.4,1.9,2.3,4.2,2.8,6.7h-10.7c-0.5-1.1-1.2-1.9-2.1-2.5c-0.9-0.6-1.9-0.9-3.1-0.9
		c-1.7,0-3.1,0.6-4,1.9s-1.5,3-1.5,5.2c0,2.2,0.5,3.9,1.5,5.2s2.3,1.9,4,1.9c1.2,0,2.2-0.3,3.1-0.9c0.9-0.6,1.6-1.4,2.1-2.5h10.7
		c-0.5,2.6-1.4,4.8-2.8,6.7c-1.4,1.9-3.2,3.4-5.4,4.5s-4.7,1.6-7.5,1.6c-3.3,0-6.1-0.7-8.5-2.1c-2.4-1.4-4.3-3.3-5.6-5.8
		c-1.3-2.5-1.9-5.4-1.9-8.6s0.6-6.1,1.9-8.6c1.3-2.5,3.1-4.4,5.6-5.8c2.4-1.4,5.2-2.1,8.5-2.1C131.5,5.8,134,6.4,136.2,7.4z"/>
	<path d="M167.2,33.6h-10.8l-1.6,4.9h-10.7L156,6.2h11.7l11.8,32.4h-10.7L167.2,33.6z M164.7,26l-2.9-9l-2.9,9H164.7z"/>
	<path d="M191.7,30.9h9.8v7.7h-19.9V6.2h10.2V30.9z"/>
</g>
<g>
	<path d="M30.8,79.8c-1,1.5-2.4,2.7-4.2,3.5c-1.8,0.9-4,1.3-6.5,1.3c-3.9,0-7.1-0.9-9.6-2.7c-2.5-1.8-3.9-4.5-4.1-8h10.8
		c0.2,1.9,1,2.8,2.5,2.8c0.5,0,0.9-0.1,1.3-0.4s0.5-0.7,0.5-1.2c0-0.8-0.4-1.4-1.2-1.8c-0.8-0.4-2-1-3.8-1.5c-2-0.7-3.7-1.4-5.1-2.1
		C10,69,8.9,68,7.8,66.6c-1-1.4-1.5-3.2-1.5-5.4c0-2.1,0.5-3.9,1.6-5.4c1.1-1.5,2.6-2.6,4.4-3.4c1.9-0.8,4-1.1,6.3-1.1
		c3.9,0,7,0.9,9.2,2.7c2.3,1.8,3.5,4.4,3.8,7.8H20.8c-0.2-1.7-0.9-2.6-2.1-2.6c-0.4,0-0.8,0.1-1.1,0.4c-0.3,0.3-0.4,0.6-0.4,1.2
		c0,0.7,0.4,1.3,1.2,1.7c0.8,0.4,2,1,3.6,1.5c2.1,0.7,3.8,1.5,5.1,2.2c1.4,0.7,2.5,1.8,3.6,3.2c1,1.4,1.5,3.2,1.5,5.3
		C32.3,76.6,31.8,78.3,30.8,79.8z"/>
	<path d="M58.2,53.2c2.2,1.1,4,2.5,5.4,4.5c1.4,1.9,2.3,4.2,2.8,6.7H55.6c-0.5-1.1-1.2-1.9-2.1-2.5c-0.9-0.6-1.9-0.9-3.1-0.9
		c-1.7,0-3.1,0.6-4,1.9s-1.5,3-1.5,5.2c0,2.2,0.5,3.9,1.5,5.2s2.3,1.9,4,1.9c1.2,0,2.2-0.3,3.1-0.9c0.9-0.6,1.6-1.4,2.1-2.5h10.7
		c-0.5,2.6-1.4,4.8-2.8,6.7c-1.4,1.9-3.2,3.4-5.4,4.5s-4.7,1.6-7.5,1.6c-3.3,0-6.1-0.7-8.5-2.1c-2.4-1.4-4.3-3.3-5.6-5.8
		c-1.3-2.5-1.9-5.4-1.9-8.6s0.6-6.1,1.9-8.6c1.3-2.5,3.1-4.4,5.6-5.8c2.4-1.4,5.2-2.1,8.5-2.1C53.5,51.6,56,52.1,58.2,53.2z"/>
	<path d="M88.5,79.4H77.7l-1.6,4.9H65.5l11.8-32.4H89l11.8,32.4H90.1L88.5,79.4z M86.1,71.7l-2.9-9l-2.9,9H86.1z"/>
	<path d="M113.1,76.6h9.8v7.7h-19.9V51.9h10.2V76.6z"/>
	<path d="M135.6,59.9v4h10.1v7.6h-10.1v4.6H147v8.1h-21.6V51.9H147v8.1H135.6z"/>
</g>
<g>
	<path d="M30.1,97.6v8.1H17.4v4.5h9.1v7.6h-9.1V130H7.2V97.6H30.1z"/>
	<path d="M43.4,97.6V130H33.2V97.6H43.4z"/>
	<path d="M74,100.4c2.7,2,4.2,4.8,4.7,8.3H68c-0.4-0.6-1-1.1-1.7-1.5c-0.7-0.4-1.6-0.5-2.7-0.5c-2,0-3.5,0.6-4.5,1.9
		c-1.1,1.3-1.6,3-1.6,5.2c0,2.5,0.6,4.4,1.8,5.7c1.2,1.3,3,1.9,5.5,1.9c2.3,0,4.2-0.9,5.7-2.8h-8.1v-7.2h16.5v10.2
		c-1.4,2.4-3.3,4.5-5.8,6.2c-2.5,1.7-5.6,2.6-9.4,2.6c-3.4,0-6.3-0.7-8.8-2.1s-4.4-3.3-5.7-5.8c-1.3-2.5-2-5.4-2-8.6s0.7-6.1,2-8.6
		c1.3-2.5,3.2-4.4,5.7-5.8c2.5-1.4,5.4-2.1,8.7-2.1C67.9,97.3,71.3,98.3,74,100.4z"/>
	<path d="M92.8,97.6v18.3c0,1.5,0.3,2.7,1,3.5c0.7,0.9,1.7,1.3,3.2,1.3s2.5-0.4,3.2-1.3c0.7-0.9,1.1-2.1,1.1-3.5V97.6h10.1v18.3
		c0,3.1-0.6,5.7-1.9,7.9c-1.3,2.2-3,3.8-5.3,4.9c-2.2,1.1-4.7,1.6-7.5,1.6c-2.7,0-5.2-0.5-7.3-1.6c-2.1-1.1-3.8-2.7-5-4.9
		c-1.2-2.2-1.8-4.8-1.8-7.9V97.6H92.8z"/>
	<path d="M132,130l-6.1-11.6V130h-10.2V97.6h15.1c2.6,0,4.9,0.5,6.7,1.4c1.9,0.9,3.3,2.2,4.2,3.8c0.9,1.6,1.4,3.4,1.4,5.4
		c0,2.2-0.6,4.1-1.8,5.8c-1.2,1.7-2.9,2.9-5.2,3.6l7,12.4H132z M125.9,111.6h4c1,0,1.7-0.2,2.2-0.7c0.5-0.4,0.7-1.1,0.7-2.1
		c0-0.9-0.3-1.5-0.8-2c-0.5-0.5-1.2-0.7-2.2-0.7h-4V111.6z"/>
	<path d="M157,105.7v4H167v7.6H157v4.6h11.4v8.1h-21.6V97.6h21.6v8.1H157z"/>
	<path d="M196.2,125.5c-1,1.5-2.4,2.7-4.2,3.5c-1.8,0.9-4,1.3-6.5,1.3c-3.9,0-7.1-0.9-9.6-2.7c-2.5-1.8-3.9-4.5-4.1-8h10.8
		c0.2,1.9,1,2.8,2.5,2.8c0.5,0,0.9-0.1,1.3-0.4s0.5-0.7,0.5-1.2c0-0.8-0.4-1.4-1.2-1.8c-0.8-0.4-2-1-3.8-1.5c-2-0.7-3.7-1.4-5.1-2.1
		c-1.4-0.7-2.5-1.7-3.5-3.1c-1-1.4-1.5-3.2-1.5-5.4c0-2.1,0.5-3.9,1.6-5.4c1.1-1.5,2.6-2.6,4.4-3.4c1.9-0.8,4-1.1,6.3-1.1
		c3.9,0,7,0.9,9.2,2.7c2.3,1.8,3.5,4.4,3.8,7.8h-10.9c-0.2-1.7-0.9-2.6-2.1-2.6c-0.4,0-0.8,0.1-1.1,0.4c-0.3,0.3-0.4,0.6-0.4,1.2
		c0,0.7,0.4,1.3,1.2,1.7c0.8,0.4,2,1,3.6,1.5c2.1,0.7,3.8,1.5,5.1,2.2c1.4,0.7,2.5,1.8,3.6,3.2c1,1.4,1.5,3.2,1.5,5.3
		C197.6,122.3,197.2,124,196.2,125.5z"/>
</g>
</svg>
