<?xml version="1.0" encoding="utf-8"?>
<!-- Generator: Adobe Illustrator 19.1.0, SVG Export Plug-In . SVG Version: 6.00 Build 0)  -->
<svg version="1.1" id="Layer_1" xmlns="http://www.w3.org/2000/svg" xmlns:xlink="http://www.w3.org/1999/xlink" x="0px" y="0px"
	 viewBox="0 0 100 100" style="enable-background:new 0 0 100 100;" xml:space="preserve">
<style type="text/css">
	.st0{fill:#F32938;}
	.st1{fill:#FFFFFF;}
</style>
<rect class="st0" width="100" height="100"/>
<g id="ZmFrqF_1_">
	<g>
		<path class="st1" d="M50,50.4c-12.9,0-25.9,0-38.8,0c-2.4,0-3.1-1-2.5-3.3c1-3.9,3.4-7,6.4-9.6c5-4.3,10.9-6.8,17.2-8.4
			c13.8-3.4,27.4-3.1,40.9,1.7c4.8,1.7,9.2,4.2,12.9,7.7c2.5,2.4,4.4,5.2,5.3,8.7c0.5,2.1-0.3,3.1-2.4,3.1C76,50.4,63,50.4,50,50.4z
			 M76.4,43.7c1.3,0,2.3-0.8,2.3-1.8c0-1-1-1.8-2.3-1.8C75.1,40.1,74,41,74,42C74.1,43,75.2,43.8,76.4,43.7z M24.2,43.7
			c1.3,0,2.3-0.8,2.3-1.8c0-1-1-1.9-2.3-1.9c-1.2,0-2.3,0.9-2.3,1.8C21.9,42.9,22.9,43.7,24.2,43.7z M50,43.7c1.3,0,2.3-0.8,2.3-1.8
			c0-1-1.1-1.8-2.3-1.8c-1.3,0-2.4,0.9-2.4,1.9C47.7,43,48.7,43.7,50,43.7z M37.3,32.7c-1.3,0-2.3,0.8-2.4,1.8c0,1,1.1,1.9,2.4,1.9
			c1.3,0,2.3-0.8,2.3-1.8C39.5,33.5,38.6,32.7,37.3,32.7z M63.2,36.4c1.3,0.1,2.4-0.7,2.5-1.8c0-1-0.9-1.8-2.1-1.9
			c-1.3-0.1-2.4,0.7-2.5,1.7C60.9,35.4,61.9,36.3,63.2,36.4z"/>
		<path class="st1" d="M50,84.3c13,0,25.9,0,38.9,0c2.2,0,2.8,0.6,2.8,2.8c-0.1,1.8,0,3.6-0.4,5.2c-1.1,4.5-5.2,7.6-9.9,7.6
			c-21,0-41.9,0-62.9,0c-5.5,0-10-4.5-10.2-10c0-1.1,0-2.1,0-3.2c0-1.8,0.7-2.5,2.5-2.5c7.7,0,15.5,0,23.2,0
			C39.4,84.3,44.7,84.3,50,84.3z"/>
		<path class="st1" d="M50,81.7c-13.8,0-27.6,0-41.4,0c-2.9,0-5.1-1.5-5.5-4.2C3,76,3,74.4,3.2,72.9c0.4-2.5,2.5-4.2,5.1-4.2
			c2.8,0,5.6-0.1,8.4,0c0.8,0,1.7,0.5,2.2,1c2.3,2.2,4.6,4.5,6.9,6.8c1.7,1.7,3.4,1.7,5.1,0c2.2-2.2,4.4-4.3,6.5-6.5
			c0.9-1,1.9-1.4,3.2-1.4c13.9,0,27.8,0,41.7,0c3,0,6,0,9.1,0c3.5,0,5.6,2.2,5.6,5.7c0,0.6,0,1.2,0,1.8c0,3.3-2.2,5.5-5.5,5.5
			c-6.3,0-12.6,0-18.9,0C65,81.7,57.5,81.7,50,81.7C50,81.7,50,81.7,50,81.7z"/>
		<path class="st1" d="M32.1,66.1c-5.1,0-10.2,0-15.3,0c-3.8,0-5.9-2.1-5.9-5.9c0-0.9,0-1.8,0.1-2.6c0.3-2.5,2.3-4.4,4.8-4.5
			c3.5-0.1,7,0,10.5,0c0.8,0,1.3,0.4,1.5,1.2c0.5,1.9,1.7,2.9,3.3,2.9c1.6,0,2.8-1,3.2-2.8c0.3-1.1,1-1.3,2-1.3c8.3,0,16.6,0,25,0
			c3,0,6,0,9,0c1.4,0,1.8,0.4,1.9,1.8c0.2,2.2,1.8,3.8,3.9,4c2.1,0.1,3.9-1.4,4.3-3.5c0.1-0.3,0-0.7,0.1-1c0.3-0.4,0.7-1.1,1.1-1.1
			c1.2-0.1,2.5-0.1,3.7,0.1c2.3,0.5,3.7,2.5,3.8,4.8c0,0.9,0,1.8,0,2.6c0,3-2.1,5.3-5.1,5.3c-8,0.1-16,0-23.9,0
			c-1,0-1.5-0.5-1.7-1.5c-0.4-2.3-2-3.7-4.2-3.7c-2.1,0-3.6,1.4-4.1,3.7c-0.2,1.2-0.6,1.5-2,1.5C42.7,66.1,37.4,66.1,32.1,66.1z
			 M17.1,62.7c1.3,0,2.4-1.1,2.4-2.4c0-1.3-1.1-2.4-2.4-2.4c-1.3,0-2.5,1.1-2.4,2.5C14.7,61.6,15.8,62.7,17.1,62.7z"/>
	</g>
</g>
</svg>
